<?xml version="1.0" encoding="utf-8" standalone="no"?>
<!DOCTYPE svg PUBLIC "-//W3C//DTD SVG 1.1//EN"
  "http://www.w3.org/Graphics/SVG/1.1/DTD/svg11.dtd">
<svg xmlns:xlink="http://www.w3.org/1999/xlink" width="517.523194pt" height="175.680137pt" viewBox="0 0 517.523194 175.680137" xmlns="http://www.w3.org/2000/svg" version="1.1">
 <metadata>
  <rdf:RDF xmlns:dc="http://purl.org/dc/elements/1.1/" xmlns:cc="http://creativecommons.org/ns#" xmlns:rdf="http://www.w3.org/1999/02/22-rdf-syntax-ns#">
   <cc:Work>
    <dc:type rdf:resource="http://purl.org/dc/dcmitype/StillImage"/>
    <dc:date>2026-07-10T23:52:08.585383</dc:date>
    <dc:format>image/svg+xml</dc:format>
    <dc:creator>
     <cc:Agent>
      <dc:title>Matplotlib v3.11.0, https://matplotlib.org/</dc:title>
     </cc:Agent>
    </dc:creator>
   </cc:Work>
  </rdf:RDF>
 </metadata>
 <defs>
  <style type="text/css">*{stroke-linejoin: round; stroke-linecap: butt}</style>
 </defs>
 <g id="figure_1">
  <g id="patch_1">
   <path d="M 0 175.680137 
L 517.523194 175.680137 
L 517.523194 0 
L 0 0 
z
" style="fill: #ffffff"/>
  </g>
  <g id="axes_1">
   <g id="patch_2">
    <path d="M 34.499473 144.341328 
L 158.878848 144.341328 
L 158.878848 19.024219 
L 34.499473 19.024219 
z
" style="fill: #ffffff"/>
   </g>
   <g id="matplotlib.axis_1">
    <g id="xtick_1">
     <g id="line2d_1">
      <defs>
       <path id="m9ab6800e64" d="M 0 0 
L 0 3.5 
" style="stroke: #222222; stroke-width: 0.8"/>
      </defs>
      <g>
       <use xlink:href="#m9ab6800e64" x="40.153081" y="144.341328" style="fill: #222222; stroke: #222222; stroke-width: 0.8"/>
      </g>
     </g>
     <g id="text_1">
      <text style="font-size: 7px; font-family: 'Arial'; text-anchor: middle; fill: #222222" x="40.153081" y="156.43752" transform="rotate(-0 40.153081 156.43752)">0</text>
     </g>
    </g>
    <g id="xtick_2">
     <g id="line2d_2">
      <g>
       <use xlink:href="#m9ab6800e64" x="84.058915" y="144.341328" style="fill: #222222; stroke: #222222; stroke-width: 0.8"/>
      </g>
     </g>
     <g id="text_2">
      <text style="font-size: 7px; font-family: 'Arial'; text-anchor: middle; fill: #222222" x="84.058915" y="156.43752" transform="rotate(-0 84.058915 156.43752)">50</text>
     </g>
    </g>
    <g id="xtick_3">
     <g id="line2d_3">
      <g>
       <use xlink:href="#m9ab6800e64" x="127.96475" y="144.341328" style="fill: #222222; stroke: #222222; stroke-width: 0.8"/>
      </g>
     </g>
     <g id="text_3">
      <text style="font-size: 7px; font-family: 'Arial'; text-anchor: middle; fill: #222222" x="127.96475" y="156.43752" transform="rotate(-0 127.96475 156.43752)">100</text>
     </g>
    </g>
    <g id="text_4">
     <text style="font-size: 7px; font-family: 'Arial'; text-anchor: middle; fill: #222222" x="96.68916" y="167.006855" transform="rotate(-0 96.68916 167.006855)">Relapse-free time (months)</text>
    </g>
   </g>
   <g id="matplotlib.axis_2">
    <g id="ytick_1">
     <g id="line2d_4">
      <defs>
       <path id="me7e0b5e0dc" d="M 0 0 
L -3.5 0 
" style="stroke: #222222; stroke-width: 0.8"/>
      </defs>
      <g>
       <use xlink:href="#me7e0b5e0dc" x="34.499473" y="144.341328" style="fill: #222222; stroke: #222222; stroke-width: 0.8"/>
      </g>
     </g>
     <g id="text_5">
      <text style="font-size: 7px; font-family: 'Arial'; text-anchor: end; fill: #222222" x="27.499473" y="146.889424" transform="rotate(-0 27.499473 146.889424)">0.0</text>
     </g>
    </g>
    <g id="ytick_2">
     <g id="line2d_5">
      <g>
       <use xlink:href="#me7e0b5e0dc" x="34.499473" y="120.007909" style="fill: #222222; stroke: #222222; stroke-width: 0.8"/>
      </g>
     </g>
     <g id="text_6">
      <text style="font-size: 7px; font-family: 'Arial'; text-anchor: end; fill: #222222" x="27.499473" y="122.556005" transform="rotate(-0 27.499473 122.556005)">0.2</text>
     </g>
    </g>
    <g id="ytick_3">
     <g id="line2d_6">
      <g>
       <use xlink:href="#me7e0b5e0dc" x="34.499473" y="95.67449" style="fill: #222222; stroke: #222222; stroke-width: 0.8"/>
      </g>
     </g>
     <g id="text_7">
      <text style="font-size: 7px; font-family: 'Arial'; text-anchor: end; fill: #222222" x="27.499473" y="98.222585" transform="rotate(-0 27.499473 98.222585)">0.4</text>
     </g>
    </g>
    <g id="ytick_4">
     <g id="line2d_7">
      <g>
       <use xlink:href="#me7e0b5e0dc" x="34.499473" y="71.34107" style="fill: #222222; stroke: #222222; stroke-width: 0.8"/>
      </g>
     </g>
     <g id="text_8">
      <text style="font-size: 7px; font-family: 'Arial'; text-anchor: end; fill: #222222" x="27.499473" y="73.889166" transform="rotate(-0 27.499473 73.889166)">0.6</text>
     </g>
    </g>
    <g id="ytick_5">
     <g id="line2d_8">
      <g>
       <use xlink:href="#me7e0b5e0dc" x="34.499473" y="47.007651" style="fill: #222222; stroke: #222222; stroke-width: 0.8"/>
      </g>
     </g>
     <g id="text_9">
      <text style="font-size: 7px; font-family: 'Arial'; text-anchor: end; fill: #222222" x="27.499473" y="49.555747" transform="rotate(-0 27.499473 49.555747)">0.8</text>
     </g>
    </g>
    <g id="ytick_6">
     <g id="line2d_9">
      <g>
       <use xlink:href="#me7e0b5e0dc" x="34.499473" y="22.674232" style="fill: #222222; stroke: #222222; stroke-width: 0.8"/>
      </g>
     </g>
     <g id="text_10">
      <text style="font-size: 7px; font-family: 'Arial'; text-anchor: end; fill: #222222" x="27.499473" y="25.222327" transform="rotate(-0 27.499473 25.222327)">1.0</text>
     </g>
    </g>
    <g id="text_11">
     <text style="font-size: 7px; font-family: 'Arial'; text-anchor: middle; fill: #222222" x="12.296191" y="81.682773" transform="rotate(-90 12.296191 81.682773)">Survival probability</text>
    </g>
   </g>
   <g id="line2d_10">
    <path d="M 40.153081 22.674232 
L 50.280693 22.674232 
L 50.280693 23.867046 
L 56.661674 23.867046 
L 56.661674 25.059861 
L 58.593531 25.059861 
L 58.593531 26.252676 
L 60.701011 26.252676 
L 60.701011 27.44549 
L 65.647735 27.44549 
L 65.647735 28.702435 
L 69.452908 28.702435 
L 69.452908 29.973192 
L 70.653 29.973192 
L 70.653 31.243949 
L 73.170268 31.243949 
L 73.170268 32.529146 
L 77.648663 32.529146 
L 77.648663 33.860244 
L 79.521979 33.860244 
L 79.521979 35.224208 
L 81.980706 35.224208 
L 81.980706 36.605437 
L 84.907761 36.605437 
L 84.907761 38.061328 
L 85.141926 38.061328 
L 85.141926 39.517218 
L 85.815149 39.517218 
L 85.815149 40.993614 
L 89.386156 40.993614 
L 89.386156 42.583579 
L 93.513305 42.583579 
L 93.513305 44.467982 
L 94.040175 44.467982 
L 94.040175 46.506213 
L 96.820878 46.506213 
L 96.820878 49.150405 
L 98.342947 49.150405 
L 98.342947 52.323436 
L 118.334737 52.323436 
L 118.334737 65.468849 
" clip-path="url(#p7cdc5c5543)" style="fill: none; stroke: #7a7a7a; stroke-width: 1.6; stroke-linecap: square"/>
   </g>
   <g id="line2d_11">
    <path d="M 40.153081 22.674232 
L 46.621874 22.674232 
L 46.621874 23.867046 
L 52.593067 23.867046 
L 52.593067 25.083958 
L 55.959181 25.083958 
L 55.959181 26.30087 
L 56.134804 26.30087 
L 56.134804 27.517782 
L 56.690945 27.517782 
L 56.690945 28.734694 
L 58.856966 28.734694 
L 58.856966 29.964552 
L 61.901104 29.964552 
L 61.901104 31.19441 
L 62.954844 31.19441 
L 62.954844 32.437782 
L 67.755215 32.437782 
L 67.755215 33.709414 
L 70.535918 33.709414 
L 70.535918 34.995831 
L 70.711541 34.995831 
L 70.711541 36.282249 
L 72.292152 36.282249 
L 72.292152 37.568666 
L 73.609327 37.568666 
L 73.609327 38.886847 
L 74.955772 38.886847 
L 74.955772 40.256386 
L 76.126594 40.256386 
L 76.126594 41.625925 
L 76.507112 41.625925 
L 76.507112 43.013971 
L 78.52678 43.013971 
L 78.52678 44.421295 
L 78.702403 44.421295 
L 78.702403 45.82862 
L 79.55125 45.82862 
L 79.55125 47.235944 
L 82.097788 47.235944 
L 82.097788 48.729873 
L 83.532045 48.729873 
L 83.532045 51.765157 
L 87.717735 51.765157 
L 87.717735 53.361298 
L 89.766674 53.361298 
L 89.766674 55.110914 
L 91.961965 55.110914 
L 91.961965 56.931943 
L 98.108782 56.931943 
L 98.108782 59.502807 
L 106.070374 59.502807 
L 106.070374 62.896348 
L 106.39235 62.896348 
L 106.39235 66.289889 
L 118.042031 66.289889 
L 118.042031 71.493318 
L 118.246925 71.493318 
L 118.246925 76.696748 
L 118.803066 76.696748 
L 118.803066 81.900177 
L 121.086169 81.900177 
L 121.086169 87.103606 
L 127.262256 87.103606 
L 127.262256 94.258321 
L 153.22524 94.258321 
L 153.22524 144.341328 
" clip-path="url(#p7cdc5c5543)" style="fill: none; stroke: #c76b32; stroke-width: 1.6; stroke-linecap: square"/>
   </g>
   <g id="patch_3">
    <path d="M 34.499473 144.341328 
L 34.499473 19.024219 
" style="fill: none; stroke: #000000; stroke-width: 0.8; stroke-linejoin: miter; stroke-linecap: square"/>
   </g>
   <g id="patch_4">
    <path d="M 34.499473 144.341328 
L 158.878848 144.341328 
" style="fill: none; stroke: #000000; stroke-width: 0.8; stroke-linejoin: miter; stroke-linecap: square"/>
   </g>
   <g id="text_12">
    <text style="font-weight: 700; font-size: 8px; font-family: 'Arial'; text-anchor: start" x="15.842566" y="14.823069" transform="rotate(-0 15.842566 14.823069)">a</text>
   </g>
   <g id="text_13">
    <text style="font-weight: 700; font-size: 8px; font-family: 'Arial'; text-anchor: start" x="34.499473" y="13.024219" transform="rotate(-0 34.499473 13.024219)">Exact-score RFS support</text>
   </g>
   <g id="legend_1">
    <g id="line2d_12">
     <path d="M 39.899473 126.947656 
L 45.899473 126.947656 
L 45.899473 126.947656 
L 51.899473 126.947656 
L 51.899473 126.947656 
" style="fill: none; stroke: #7a7a7a; stroke-width: 1.6; stroke-linecap: square"/>
    </g>
    <g id="text_14">
     <text style="font-size: 6px; font-family: 'Arial'; text-anchor: start" x="56.699473" y="129.047656" transform="rotate(-0 56.699473 129.047656)">Low axis</text>
    </g>
    <g id="line2d_13">
     <path d="M 39.899473 135.578516 
L 45.899473 135.578516 
L 45.899473 135.578516 
L 51.899473 135.578516 
L 51.899473 135.578516 
" style="fill: none; stroke: #c76b32; stroke-width: 1.6; stroke-linecap: square"/>
    </g>
    <g id="text_15">
     <text style="font-size: 6px; font-family: 'Arial'; text-anchor: start" x="56.699473" y="137.678516" transform="rotate(-0 56.699473 137.678516)">High axis</text>
    </g>
   </g>
  </g>
  <g id="axes_2">
   <g id="patch_5">
    <path d="M 215.503995 144.341328 
L 356.844194 144.341328 
L 356.844194 19.024219 
L 215.503995 19.024219 
z
" style="fill: #ffffff"/>
   </g>
   <g id="matplotlib.axis_3">
    <g id="xtick_4">
     <g id="line2d_14">
      <g>
       <use xlink:href="#m9ab6800e64" x="246.912928" y="144.341328" style="fill: #222222; stroke: #222222; stroke-width: 0.8"/>
      </g>
     </g>
     <g id="text_16">
      <text style="font-size: 7px; font-family: 'Arial'; text-anchor: middle; fill: #222222" x="246.912928" y="156.43752" transform="rotate(-0 246.912928 156.43752)">1</text>
     </g>
    </g>
    <g id="xtick_5">
     <g id="line2d_15">
      <g>
       <use xlink:href="#m9ab6800e64" x="286.174094" y="144.341328" style="fill: #222222; stroke: #222222; stroke-width: 0.8"/>
      </g>
     </g>
     <g id="text_17">
      <text style="font-size: 7px; font-family: 'Arial'; text-anchor: middle; fill: #222222" x="286.174094" y="156.43752" transform="rotate(-0 286.174094 156.43752)">2</text>
     </g>
    </g>
    <g id="xtick_6">
     <g id="line2d_16">
      <g>
       <use xlink:href="#m9ab6800e64" x="325.435261" y="144.341328" style="fill: #222222; stroke: #222222; stroke-width: 0.8"/>
      </g>
     </g>
     <g id="text_18">
      <text style="font-size: 7px; font-family: 'Arial'; text-anchor: middle; fill: #222222" x="325.435261" y="156.43752" transform="rotate(-0 325.435261 156.43752)">3</text>
     </g>
    </g>
    <g id="text_19">
     <text style="font-size: 7px; font-family: 'Arial'; text-anchor: middle; fill: #222222" x="286.174094" y="167.006855" transform="rotate(-0 286.174094 167.006855)">Hazard ratio</text>
    </g>
   </g>
   <g id="matplotlib.axis_4"/>
   <g id="LineCollection_1">
    <path d="M 251.337664 42.521177 
L 291.012102 42.521177 
" clip-path="url(#pc25c59b89f)" style="fill: none; stroke: #3b6ea5"/>
   </g>
   <g id="line2d_17">
    <defs>
     <path id="m71ab90f260" d="M 0 2 
L 0 -2 
" style="stroke: #3b6ea5"/>
    </defs>
    <g clip-path="url(#pc25c59b89f)">
     <use xlink:href="#m71ab90f260" x="251.337664" y="42.521177" style="fill: #3b6ea5; stroke: #3b6ea5"/>
    </g>
   </g>
   <g id="line2d_18">
    <g clip-path="url(#pc25c59b89f)">
     <use xlink:href="#m71ab90f260" x="291.012102" y="42.521177" style="fill: #3b6ea5; stroke: #3b6ea5"/>
    </g>
   </g>
   <g id="LineCollection_2">
    <path d="M 247.290331 81.682773 
L 283.33274 81.682773 
" clip-path="url(#pc25c59b89f)" style="fill: none; stroke: #c76b32"/>
   </g>
   <g id="line2d_19">
    <defs>
     <path id="mb044358036" d="M 0 2 
L 0 -2 
" style="stroke: #c76b32"/>
    </defs>
    <g clip-path="url(#pc25c59b89f)">
     <use xlink:href="#mb044358036" x="247.290331" y="81.682773" style="fill: #c76b32; stroke: #c76b32"/>
    </g>
   </g>
   <g id="line2d_20">
    <g clip-path="url(#pc25c59b89f)">
     <use xlink:href="#mb044358036" x="283.33274" y="81.682773" style="fill: #c76b32; stroke: #c76b32"/>
    </g>
   </g>
   <g id="LineCollection_3">
    <path d="M 247.603527 120.84437 
L 284.034956 120.84437 
" clip-path="url(#pc25c59b89f)" style="fill: none; stroke: #2e8b7a"/>
   </g>
   <g id="line2d_21">
    <defs>
     <path id="m371f7ca24e" d="M 0 2 
L 0 -2 
" style="stroke: #2e8b7a"/>
    </defs>
    <g clip-path="url(#pc25c59b89f)">
     <use xlink:href="#m371f7ca24e" x="247.603527" y="120.84437" style="fill: #2e8b7a; stroke: #2e8b7a"/>
    </g>
   </g>
   <g id="line2d_22">
    <g clip-path="url(#pc25c59b89f)">
     <use xlink:href="#m371f7ca24e" x="284.034956" y="120.84437" style="fill: #2e8b7a; stroke: #2e8b7a"/>
    </g>
   </g>
   <g id="line2d_23">
    <path d="M 246.912928 144.341328 
L 246.912928 19.024219 
" clip-path="url(#pc25c59b89f)" style="fill: none; stroke-dasharray: 2.96,1.28; stroke-dashoffset: 0; stroke: #7a7a7a; stroke-width: 0.8"/>
   </g>
   <g id="line2d_24">
    <defs>
     <path id="m089974afb0" d="M 0 2 
C 0.530406 2 1.03916 1.789267 1.414214 1.414214 
C 1.789267 1.03916 2 0.530406 2 0 
C 2 -0.530406 1.789267 -1.03916 1.414214 -1.414214 
C 1.03916 -1.789267 0.530406 -2 0 -2 
C -0.530406 -2 -1.03916 -1.789267 -1.414214 -1.414214 
C -1.789267 -1.03916 -2 -0.530406 -2 0 
C -2 0.530406 -1.789267 1.03916 -1.414214 1.414214 
C -1.03916 1.789267 -0.530406 2 0 2 
z
" style="stroke: #3b6ea5"/>
    </defs>
    <g clip-path="url(#pc25c59b89f)">
     <use xlink:href="#m089974afb0" x="267.998026" y="42.521177" style="fill: #3b6ea5; stroke: #3b6ea5"/>
    </g>
   </g>
   <g id="line2d_25">
    <defs>
     <path id="md096c939ac" d="M 0 2 
C 0.530406 2 1.03916 1.789267 1.414214 1.414214 
C 1.789267 1.03916 2 0.530406 2 0 
C 2 -0.530406 1.789267 -1.03916 1.414214 -1.414214 
C 1.03916 -1.789267 0.530406 -2 0 -2 
C -0.530406 -2 -1.03916 -1.789267 -1.414214 -1.414214 
C -1.789267 -1.03916 -2 -0.530406 -2 0 
C -2 0.530406 -1.789267 1.03916 -1.414214 1.414214 
C -1.03916 1.789267 -0.530406 2 0 2 
z
" style="stroke: #c76b32"/>
    </defs>
    <g clip-path="url(#pc25c59b89f)">
     <use xlink:href="#md096c939ac" x="262.422974" y="81.682773" style="fill: #c76b32; stroke: #c76b32"/>
    </g>
   </g>
   <g id="line2d_26">
    <defs>
     <path id="m784ed21972" d="M 0 2 
C 0.530406 2 1.03916 1.789267 1.414214 1.414214 
C 1.789267 1.03916 2 0.530406 2 0 
C 2 -0.530406 1.789267 -1.03916 1.414214 -1.414214 
C 1.03916 -1.789267 0.530406 -2 0 -2 
C -0.530406 -2 -1.03916 -1.789267 -1.414214 -1.414214 
C -1.789267 -1.03916 -2 -0.530406 -2 0 
C -2 0.530406 -1.789267 1.03916 -1.414214 1.414214 
C -1.03916 1.789267 -0.530406 2 0 2 
z
" style="stroke: #2e8b7a"/>
    </defs>
    <g clip-path="url(#pc25c59b89f)">
     <use xlink:href="#m784ed21972" x="262.893444" y="120.84437" style="fill: #2e8b7a; stroke: #2e8b7a"/>
    </g>
   </g>
   <g id="patch_6">
    <path d="M 215.503995 144.341328 
L 215.503995 19.024219 
" style="fill: none; stroke: #000000; stroke-width: 0.8; stroke-linejoin: miter; stroke-linecap: square"/>
   </g>
   <g id="patch_7">
    <path d="M 215.503995 144.341328 
L 356.844194 144.341328 
" style="fill: none; stroke: #000000; stroke-width: 0.8; stroke-linejoin: miter; stroke-linecap: square"/>
   </g>
   <g id="text_20">
    <text style="font-size: 6px; font-family: 'Arial'; text-anchor: end" x="243.772035" y="44.073911" transform="rotate(-0 243.772035 44.073911)">Continuous axis</text>
   </g>
   <g id="text_21">
    <text style="font-size: 6px; font-family: 'Arial'; text-anchor: end" x="354.01739" y="44.073853" transform="rotate(-0 354.01739 44.073853)">1.54 (1.11-2.12)</text>
   </g>
   <g id="text_22">
    <text style="font-size: 6px; font-family: 'Arial'; text-anchor: end" x="243.772035" y="83.235449" transform="rotate(-0 243.772035 83.235449)">Age/sex/stage adjusted</text>
   </g>
   <g id="text_23">
    <text style="font-size: 6px; font-family: 'Arial'; text-anchor: end" x="354.01739" y="83.235449" transform="rotate(-0 354.01739 83.235449)">1.40 (1.01-1.93)</text>
   </g>
   <g id="text_24">
    <text style="font-size: 6px; font-family: 'Arial'; text-anchor: end" x="243.772035" y="122.397046" transform="rotate(-0 243.772035 122.397046)">Gender-stratified sensitivity</text>
   </g>
   <g id="text_25">
    <text style="font-size: 6px; font-family: 'Arial'; text-anchor: end" x="354.01739" y="122.397046" transform="rotate(-0 354.01739 122.397046)">1.41 (1.02-1.95)</text>
   </g>
   <g id="text_26">
    <text style="font-weight: 700; font-size: 8px; font-family: 'Arial'; text-anchor: start" x="194.302965" y="14.823069" transform="rotate(-0 194.302965 14.823069)">b</text>
   </g>
   <g id="text_27">
    <text style="font-weight: 700; font-size: 8px; font-family: 'Arial'; text-anchor: start" x="215.503995" y="13.024219" transform="rotate(-0 215.503995 13.024219)">GSE31210 Cox estimates</text>
   </g>
  </g>
  <g id="axes_3">
   <g id="patch_8">
    <path d="M 413.469341 144.341328 
L 509.580676 144.341328 
L 509.580676 19.024219 
L 413.469341 19.024219 
z
" style="fill: #ffffff"/>
   </g>
   <g id="patch_9">
    <path d="M 417.838038 394.975547 
L 450.603266 394.975547 
L 450.603266 57.05127 
L 417.838038 57.05127 
z
" clip-path="url(#pcf6a7caf55)" style="fill: #7a7a7a"/>
   </g>
   <g id="patch_10">
    <path d="M 472.446751 394.975547 
L 505.211979 394.975547 
L 505.211979 53.844563 
L 472.446751 53.844563 
z
" clip-path="url(#pcf6a7caf55)" style="fill: #2e8b7a"/>
   </g>
   <g id="matplotlib.axis_5">
    <g id="xtick_7">
     <g id="line2d_27">
      <g>
       <use xlink:href="#m9ab6800e64" x="434.220652" y="144.341328" style="fill: #222222; stroke: #222222; stroke-width: 0.8"/>
      </g>
     </g>
     <g id="text_28">
      <text style="font-size: 7px; font-family: 'Arial'; text-anchor: middle; fill: #222222" x="434.220652" y="156.43752" transform="rotate(-0 434.220652 156.43752)">Clinical</text>
     </g>
    </g>
    <g id="xtick_8">
     <g id="line2d_28">
      <g>
       <use xlink:href="#m9ab6800e64" x="488.829365" y="144.341328" style="fill: #222222; stroke: #222222; stroke-width: 0.8"/>
      </g>
     </g>
     <g id="text_29">
      <text style="font-size: 7px; font-family: 'Arial'; text-anchor: middle; fill: #222222" x="488.829365" y="156.43752" transform="rotate(-0 488.829365 156.43752)">Clinical + axis</text>
     </g>
    </g>
   </g>
   <g id="matplotlib.axis_6">
    <g id="ytick_7">
     <g id="line2d_29">
      <g>
       <use xlink:href="#me7e0b5e0dc" x="413.469341" y="144.341328" style="fill: #222222; stroke: #222222; stroke-width: 0.8"/>
      </g>
     </g>
     <g id="text_30">
      <text style="font-size: 7px; font-family: 'Arial'; text-anchor: end; fill: #222222" x="406.469341" y="146.889424" transform="rotate(-0 406.469341 146.889424)">0.50</text>
     </g>
    </g>
    <g id="ytick_8">
     <g id="line2d_30">
      <g>
       <use xlink:href="#me7e0b5e0dc" x="413.469341" y="119.277906" style="fill: #222222; stroke: #222222; stroke-width: 0.8"/>
      </g>
     </g>
     <g id="text_31">
      <text style="font-size: 7px; font-family: 'Arial'; text-anchor: end; fill: #222222" x="406.469341" y="121.826002" transform="rotate(-0 406.469341 121.826002)">0.55</text>
     </g>
    </g>
    <g id="ytick_9">
     <g id="line2d_31">
      <g>
       <use xlink:href="#me7e0b5e0dc" x="413.469341" y="94.214484" style="fill: #222222; stroke: #222222; stroke-width: 0.8"/>
      </g>
     </g>
     <g id="text_32">
      <text style="font-size: 7px; font-family: 'Arial'; text-anchor: end; fill: #222222" x="406.469341" y="96.76258" transform="rotate(-0 406.469341 96.76258)">0.60</text>
     </g>
    </g>
    <g id="ytick_10">
     <g id="line2d_32">
      <g>
       <use xlink:href="#me7e0b5e0dc" x="413.469341" y="69.151063" style="fill: #222222; stroke: #222222; stroke-width: 0.8"/>
      </g>
     </g>
     <g id="text_33">
      <text style="font-size: 7px; font-family: 'Arial'; text-anchor: end; fill: #222222" x="406.469341" y="71.699158" transform="rotate(-0 406.469341 71.699158)">0.65</text>
     </g>
    </g>
    <g id="ytick_11">
     <g id="line2d_33">
      <g>
       <use xlink:href="#me7e0b5e0dc" x="413.469341" y="44.087641" style="fill: #222222; stroke: #222222; stroke-width: 0.8"/>
      </g>
     </g>
     <g id="text_34">
      <text style="font-size: 7px; font-family: 'Arial'; text-anchor: end; fill: #222222" x="406.469341" y="46.635736" transform="rotate(-0 406.469341 46.635736)">0.70</text>
     </g>
    </g>
    <g id="ytick_12">
     <g id="line2d_34">
      <g>
       <use xlink:href="#me7e0b5e0dc" x="413.469341" y="19.024219" style="fill: #222222; stroke: #222222; stroke-width: 0.8"/>
      </g>
     </g>
     <g id="text_35">
      <text style="font-size: 7px; font-family: 'Arial'; text-anchor: end; fill: #222222" x="406.469341" y="21.572314" transform="rotate(-0 406.469341 21.572314)">0.75</text>
     </g>
    </g>
    <g id="text_36">
     <text style="font-size: 7px; font-family: 'Arial'; text-anchor: middle; fill: #222222" x="387.373404" y="81.682773" transform="rotate(-90 387.373404 81.682773)">Optimism-adjusted C-index</text>
    </g>
   </g>
   <g id="patch_11">
    <path d="M 413.469341 144.341328 
L 413.469341 19.024219 
" style="fill: none; stroke: #000000; stroke-width: 0.8; stroke-linejoin: miter; stroke-linecap: square"/>
   </g>
   <g id="patch_12">
    <path d="M 413.469341 144.341328 
L 509.580676 144.341328 
" style="fill: none; stroke: #000000; stroke-width: 0.8; stroke-linejoin: miter; stroke-linecap: square"/>
   </g>
   <g id="text_37">
    <text style="font-size: 6px; font-family: 'Arial'; text-anchor: middle" x="434.220652" y="53.542391" transform="rotate(-0 434.220652 53.542391)">0.674</text>
   </g>
   <g id="text_38">
    <text style="font-size: 6px; font-family: 'Arial'; text-anchor: middle" x="488.829365" y="50.335684" transform="rotate(-0 488.829365 50.335684)">0.681</text>
   </g>
   <g id="text_39">
    <text style="font-size: 6px; font-family: 'Arial'; text-anchor: middle" x="461.525009" y="134.315959" transform="rotate(-0 461.525009 134.315959)">LRT p=0.0458</text>
   </g>
   <g id="text_40">
    <text style="font-weight: 700; font-size: 8px; font-family: 'Arial'; text-anchor: start" x="399.052641" y="14.823069" transform="rotate(-0 399.052641 14.823069)">c</text>
   </g>
   <g id="text_41">
    <text style="font-weight: 700; font-size: 8px; font-family: 'Arial'; text-anchor: start" x="413.469341" y="13.024219" transform="rotate(-0 413.469341 13.024219)">Exploratory increment</text>
   </g>
  </g>
 </g>
 <defs>
  <clipPath id="p7cdc5c5543">
   <rect x="34.499473" y="19.024219" width="124.379375" height="125.317109"/>
  </clipPath>
  <clipPath id="pc25c59b89f">
   <rect x="215.503995" y="19.024219" width="141.340199" height="125.317109"/>
  </clipPath>
  <clipPath id="pcf6a7caf55">
   <rect x="413.469341" y="19.024219" width="96.111335" height="125.317109"/>
  </clipPath>
 </defs>
</svg>
